# AST/ASF file generated using VICON BodyLanguage
# -----------------------------------------------
:version 1.10
:name VICON
:units
  mass 1.0
  length 0.45
  angle deg
:documentation
   .ast/.asf automatically generated from VICON data using
   VICON BodyBuilder and BodyLanguage model FoxedUp or BRILLIANT.MOD
:root
   order TX TY TZ RX RY RZ
   axis XYZ
   position 0 0 0  
   orientation 0 0 0 
:bonedata
  begin
     id 1 
     name lhipjoint
     direction 0.573633 -0.743009 0.344793 
     length 2.46257 
     axis 0 0 0  XYZ
  end
  begin
     id 2 
     name lfemur
     direction 0.34202 -0.939693 0  
     length 7.3842  
     axis 0 0 20  XYZ
    dof rx ry rz
    limits (-160.0 20.0)
           (-70.0 70.0)
           (-60.0 70.0)
  end
  begin
     id 3 
     name ltibia
     direction 0.34202 -0.939693 0   
     length 7.50407   
     axis 0 0 20   XYZ
    dof rx
    limits (-10.0 170.0)
  end
  begin
     id 4 
     name lfoot
     direction 0.110749 -0.304281 0.946123   
     length 1.95925   
     axis -90 7.62852e-016 20   XYZ
    dof rx rz
    limits (-45.0 90.0)
           (-70.0 20.0)
  end
  begin
     id 5 
     name ltoes
     direction 1.53554e-011 -4.21843e-011 1   
     length 0.978318   
     axis -90 7.62852e-016 20   XYZ
    dof rx
    limits (-90.0 20.0)
  end
  begin
     id 6 
     name rhipjoint
     direction -0.488109 -0.791693 0.367385   
     length 2.31113  
     axis 0 0 0  XYZ 
  end
  begin
     id 7 
     name rfemur
     direction -0.34202 -0.939693 0   
     length 7.40965   
     axis 0 0 -20   XYZ
    dof rx ry rz
    limits (-160.0 20.0)
           (-70.0 70.0)
           (-70.0 60.0)
  end
  begin
     id 8 
     name rtibia
     direction -0.34202 -0.939693 0   
     length 7.55548   
     axis 0 0 -20   XYZ
    dof rx
    limits (-10.0 170.0)
 end
 begin
     id 9 
     name rfoot
     direction -0.127594 -0.350561 0.927808   
     length 2.07199  
     axis -90 -7.62852e-016 -20   XYZ
    dof rx rz
    limits (-45.0 90.0)
           (-20.0 70.0)
  end
  begin
     id 10 
     name rtoes
     direction -1.53542e-011 -4.21909e-011 1   
     length 1.02667   
     axis -90 -7.62852e-016 -20   XYZ
    dof rx
    limits (-90.0 20.0)
  end
  begin
     id 11 
     name lowerback
     direction -0.0103342 0.997298 -0.0727278   
     length 2.02836   
     axis 0 0 0   XYZ
    dof rx ry rz
    limits (-20.0 45.0)
           (-30.0 30.0)
           (-30.0 30.0)
  end
  begin
     id 12 
     name upperback
     direction 0.0171146 0.999786 -0.011606   
     length 2.03179   
     axis 0 0 0   XYZ
    dof rx ry rz
    limits (-20.0 45.0)
           (-30.0 30.0)
           (-30.0 30.0)
  end
  begin
     id 13 
     name thorax
     direction 0.0216927 0.999513 0.0224343   
     length 2.03882   
     axis 0 0 0   XYZ
    dof rx ry rz
    limits (-20.0 45.0)
           (-30.0 30.0)
           (-30.0 30.0)
  end
  begin
     id 14 
     name lowerneck
     direction 0.000989287 0.993907 0.110221   
     length 1.75428   
     axis 0 0 0   XYZ
    dof rx ry rz
    limits (-20.0 45.0)
           (-30.0 30.0)
           (-30.0 30.0)
  end
  begin
     id 15 
     name upperneck
     direction -0.0172474 0.994813 -0.100253   
     length 1.77058   
     axis 0 0 0   XYZ
    dof rx ry rz
    limits (-20.0 45.0)
           (-30.0 30.0)
           (-30.0 30.0)
  end
  begin
     id 16
     name head
     direction -0.00486455 0.99894 -0.0457663  
     length 1.77427  
     axis 0 0 0   XYZ
    dof rx ry rz
    limits (-20.0 45.0)
           (-30.0 30.0)
           (-30.0 30.0)
  end
  begin
     id 17 
     name lclavicle
     direction 0.927314 0.333734 -0.169441  
     length 3.97584  
     axis 0 0 0   XYZ
    dof ry rz
    limits (-20.0 10.0)
           (0.0 20.0)
  end
  begin
     id 18 
     name lhumerus
     direction 1 -4.48965e-011 -3.25313e-028   
     length 4.76468   
     axis 180 -30 -90   XYZ
    dof rx ry rz
    limits (-60.0 90.0)
           (-90.0 90.0)
           (-90.0 90.0)
  end
  begin
     id 19
     name lradius
     direction 1 -4.48969e-011 -2.8465e-028   
     length 3.52712   
     axis -180 -30 -90   XYZ
    dof rx
    limits (-10.0 170.0)
  end
  begin
     id 20
     name lwrist
     direction 1 -4.4896e-011 -7.78665e-028   
     length 1.76356   
     axis 1.91374e-015 90 90   XYZ
    dof ry
    limits (-180.0 0.0)
 end
  begin
     id 21 
     name lhand
     direction 1 -4.48959e-011 -1.55733e-027   
     length 0.859564   
     axis 9.9371e-016 90 90   XYZ
    dof rx rz
    limits (-90.0 90.0)
           (-45.0 45.0)
  end
  begin
     id 22 
     name lfingers
     direction 1 -4.48965e-011 -3.11466e-027   
     length 0.693002   
     axis 1.98742e-015 90 90   XYZ
    dof rx
    limits (0.0 90.0)
  end
  begin
     id 23
     name lthumb
     direction 0.707107 -6.34948e-011 0.707107   
     length 0.995017   
     axis -90 45 2.85299e-015   XYZ
    dof rx rz
    limits (-45.0 45.0)
           (-45.0 45.0)
  end
  begin
     id 24 
     name rclavicle
     direction -0.899388 0.348209 -0.264294   
     length 3.68366  
     axis 0 0 0   XYZ 
    dof ry rz
    limits (-10.0 20.0)
           (-20.0 0.0)
  end
  begin
     id 25 
     name rhumerus
     direction -1 -4.48965e-011 -3.01536e-027  
     length 4.90577   
     axis 180 30 90   XYZ
    dof rx ry rz
    limits (-90.0 60.0)
           (-90.0 90.0)
           (-90.0 90.0)
  end
  begin
     id 26 
     name rradius
     direction -1 -4.48966e-011 3.93291e-027   
     length 3.42692   
     axis -180 30 90   XYZ
    dof rx
    limits (-10.0 170.0)
  end
  begin
     id 27 
     name rwrist
     direction -1 -4.48969e-011 -7.78665e-028   
     length 1.71346   
     axis 1.91374e-015 -90 -90   XYZ
    dof ry
    limits (-180.0 0.0)
  end
  begin
     id 28
     name rhand
     direction -1 -4.48967e-011 -1.55733e-027   
     length 0.740957   
     axis 9.9371e-016 -90 -90   XYZ
    dof rx rz
    limits (-90.0 90.0)
           (-45.0 45.0)
  end
  begin
     id 29
     name rfingers
     direction -1 -4.48949e-011 -3.11466e-027   
     length 0.597378   
     axis 1.98742e-015 -90 -90   XYZ
    dof rx
    limits (0.0 90.0)
  end
  begin
     id 30
     name rthumb
     direction -0.707107 -6.34931e-011 0.707107   
     length 0.857719   
     axis -90 -45 -2.85299e-015   XYZ
    dof rx rz
    limits (-45.0 45.0)
           (-45.0 45.0)
  end
:hierarchy
  begin
    root lhipjoint rhipjoint lowerback
    lhipjoint lfemur
    lfemur ltibia
    ltibia lfoot
    lfoot ltoes
    rhipjoint rfemur
    rfemur rtibia
    rtibia rfoot
    rfoot rtoes
    lowerback upperback
    upperback thorax
    thorax lowerneck lclavicle rclavicle
    lowerneck upperneck
    upperneck head
    lclavicle lhumerus
    lhumerus lradius
    lradius lwrist
    lwrist lhand lthumb
    lhand lfingers
    rclavicle rhumerus
    rhumerus rradius
    rradius rwrist
    rwrist rhand rthumb
    rhand rfingers
  end

#!OML:ASF E:\I on waltz\AllaLogoMonkeySwing\Project 1\Capture day 1\Session 1\Subject1.ASF
:FULLY-SPECIFIED
:DEGREES
419
root 0.226266 17.8626 2.68699 1.92737 -6.4541 356.53
lowerback 13.6827 0.248136 1.23011
upperback 1.8859 0.67093 2.71383
thorax -5.70233 0.325778 2.0429
lowerneck -10.8145 3.71129 1.65287
upperneck 12.3963 5.33099 -4.09053
head 5.6773 2.37535 -1.12209
rclavicle -4.57205e-015 -6.75868e-015
rhumerus -25.5016 -17.3616 -74.9124
rradius 33.7935
rwrist -2.74846
rhand -7.39437 -38.745
rfingers 7.12502
rthumb 18.4915 -67.8861
lclavicle -4.57205e-015 -6.75868e-015
lhumerus -43.5922 22.5953 78.5401
lradius 38.7442
lwrist -5.01746
lhand 10.8709 -7.39843
lfingers 7.12502
lthumb 35.9519 18.9299
rfemur -0.89737 1.30171 20.0819
rtibia 18.6195
rfoot -17.7749 -5.42621
rtoes 9.27355
lfemur -10.5767 12.7362 -9.08467
ltibia 35.98
lfoot -14.9251 8.23825
ltoes -22.5512
420
root 0.244826 17.8581 2.64241 1.98165 -6.589 356.658
lowerback 13.4948 0.136095 1.04265
upperback 1.85492 0.494547 2.77616
thorax -5.62855 0.243913 2.24679
lowerneck -10.3859 4.06953 2.24287
upperneck 12.0854 5.80295 -4.73413
head 5.55838 2.59721 -1.38902
rclavicle -1.97791e-014 -7.95139e-016
rhumerus -25.8879 -17.7192 -74.4339
rradius 33.7813
rwrist -2.49314
rhand -7.39594 -38.8195
rfingers 7.12502
rthumb 18.49 -67.9607
lclavicle -1.97791e-014 -7.95139e-016
lhumerus -43.3863 21.7868 78.9387
lradius 39.287
lwrist -4.29668
lhand 9.59318 -7.87041
lfingers 7.12502
lthumb 34.7404 18.7459
rfemur -1.25754 1.32637 19.8323
rtibia 18.7991
rfoot -17.6764 -5.19584
rtoes 10.5183
lfemur -9.48099 13.3068 -9.66443
ltibia 36.1374
lfoot -14.6151 8.45997
ltoes -22.1821
421
root 0.265183 17.8496 2.6001 2.05752 -6.63432 356.793
lowerback 13.2823 -0.0112086 0.737264
upperback 1.81213 0.257371 2.8794
thorax -5.55049 0.134904 2.57077
lowerneck -10.4515 4.09939 2.25805
upperneck 12.0471 5.82857 -4.66584
head 5.55673 2.61472 -1.36701
rclavicle -3.37934e-015 -2.06736e-014
rhumerus -26.2957 -18.1512 -73.8762
rradius 33.6279
rwrist -2.33235
rhand -7.29527 -38.6611
rfingers 7.12502
rthumb 18.5868 -67.7931
lclavicle -3.37934e-015 -2.06736e-014
lhumerus -43.2044 21.1742 79.2543
lradius 39.8076
lwrist -3.7124
lhand 7.85985 -8.37971
lfingers 7.12502
lthumb 33.0938 18.6007
rfemur -1.67511 1.36564 19.5935
rtibia 19.0723
rfoot -17.6098 -5.11704
rtoes 11.0557
lfemur -8.2855 13.6343 -10.245
ltibia 35.7413
lfoot -13.9922 8.32286
ltoes -23.1763
422
root 0.289026 17.8379 2.56 2.13106 -6.67898 356.864
lowerback 13.0872 -0.158221 0.425555
upperback 1.77539 0.0228661 3.01735
thorax -5.4722 0.0272448 2.9336
lowerneck -10.0715 4.38743 2.58945
upperneck 11.6828 6.20775 -5.04701
head 5.41522 2.79953 -1.51803
rclavicle -1.91827e-014 1.27222e-014
rhumerus -26.7007 -18.7379 -73.2365
rradius 33.4005
rwrist -1.95141
rhand -6.94935 -38.6665
rfingers 7.12502
rthumb 18.9195 -67.7664
lclavicle -1.91827e-014 1.27222e-014
lhumerus -43.0245 20.6162 79.55
lradius 40.3391
lwrist -3.1504
lhand 5.90609 -8.7996
lfingers 7.12502
lthumb 31.2338 18.557
rfemur -2.13192 1.37773 19.4147
rtibia 19.4578
rfoot -17.616 -5.0614
rtoes 10.863
lfemur -6.88178 13.7995 -10.7404
ltibia 34.6812
lfoot -13.0549 7.9645
ltoes -25.1842
423
root 0.32015 17.8271 2.52383 2.22399 -6.70663 357.055
lowerback 12.8791 -0.302952 0.0276905
upperback 1.71423 -0.222245 3.10314
thorax -5.4078 -0.0843518 3.29108
lowerneck -9.76304 4.59463 2.83815
upperneck 11.3254 6.47642 -5.33154
head 5.28037 2.9331 -1.6338
rclavicle -3.47873e-015 -2.06736e-014
rhumerus -27.2251 -19.3505 -72.5492
rradius 33.2547
rwrist -1.73596
rhand -6.75005 -38.8422
rfingers 7.12502
rthumb 19.1112 -67.9233
lclavicle -3.47873e-015 -2.06736e-014
lhumerus -42.8246 19.9723 79.8605
lradius 40.8779
lwrist -2.57831
lhand 3.64638 -9.23009
lfingers 7.12502
lthumb 29.078 18.5202
rfemur -2.66647 1.38107 19.0682
rtibia 19.9532
rfoot -17.7026 -5.05105
rtoes 10.6775
lfemur -5.35107 13.8287 -11.4483
ltibia 33.0577
lfoot -14.3247 8.10895
ltoes -27.2013
424
root 0.35756 17.8155 2.49272 2.34636 -6.61099 357.361
lowerback 12.5974 -0.476517 -0.437638
upperback 1.64185 -0.515843 3.15819
thorax -5.30656 -0.219254 3.66007
lowerneck -9.59815 4.75622 2.98949
upperneck 11.1444 6.69092 -5.51578
head 5.21705 3.03787 -1.70301
rclavicle 4.6118e-014 -2.90226e-014
rhumerus -27.8226 -19.9013 -71.803
rradius 33.1503
rwrist -1.83714
rhand -6.47228 -39.1455
rfingers 7.12502
rthumb 19.3783 -68.1999
lclavicle 4.6118e-014 -2.90226e-014
lhumerus -42.5245 19.3591 80.1806
lradius 41.291
lwrist -2.06626
lhand 1.35247 -9.75447
lfingers 7.12502
lthumb 26.8852 18.3537
rfemur -3.25023 1.32571 18.568
rtibia 20.5222
rfoot -17.8212 -5.14391
rtoes 10.4586
lfemur -3.66348 13.1848 -12.3196
ltibia 29.7335
lfoot -14.9966 9.29983
ltoes -27.7358
425
root 0.396318 17.8019 2.46187 2.4427 -6.37176 357.603
lowerback 12.3756 -0.681066 -0.836357
upperback 1.58356 -0.838268 3.22815
thorax -5.21662 -0.370037 4.01095
lowerneck -9.52465 4.87854 3.09537
upperneck 11.0328 6.84956 -5.61443
head 5.18421 3.11647 -1.74038
rclavicle 1.65985e-014 1.47101e-014
rhumerus -28.3887 -20.4729 -71.0352
rradius 32.9394
rwrist -2.04013
rhand -6.21663 -39.3157
rfingers 7.12502
rthumb 19.6241 -68.3453
lclavicle 1.65985e-014 1.47101e-014
lhumerus -42.1415 18.6914 80.5101
lradius 41.6162
lwrist -1.48479
lhand -0.616245 -10.3236
lfingers 7.12502
lthumb 25 18.0607
rfemur -3.8124 1.29819 18.1607
rtibia 21.1346
rfoot -17.9796 -5.38959
rtoes 10.3967
lfemur -1.93256 12.2976 -13.0672
ltibia 25.8787
lfoot -15.4038 11.1551
ltoes -27.6551
426
root 0.434 17.7908 2.4273 2.51929 -6.00906 357.927
lowerback 12.2916 -0.90417 -1.32254
upperback 1.48924 -1.19735 3.23884
thorax -5.23198 -0.535617 4.35814
lowerneck -9.38425 4.96275 3.2523
upperneck 10.8381 6.93908 -5.65869
head 5.11126 3.16958 -1.77698
rclavicle -1.03368e-014 6.75868e-015
rhumerus -29.0804 -21.1001 -70.2951
rradius 32.7614
rwrist -2.26057
rhand -6.23409 -39.2156
rfingers 7.12502
rthumb 19.6073 -68.2468
lclavicle -1.03368e-014 6.75868e-015
lhumerus -41.7003 17.9487 80.7341
lradius 41.8652
lwrist -0.857631
lhand -2.20066 -10.7827
lfingers 7.12502
lthumb 23.4809 17.8043
rfemur -4.41744 1.28658 17.6785
rtibia 21.8462
rfoot -18.1949 -5.78369
rtoes 10.341
lfemur -0.409806 11.6753 -13.8462
ltibia 22.313
lfoot -15.6595 11.824
ltoes -26.5747
427
root 0.471535 17.7837 2.38902 2.6843 -5.50269 358.433
lowerback 12.2018 -1.15831 -1.99871
upperback 1.34269 -1.62474 3.19951
thorax -5.28262 -0.729382 4.77223
lowerneck -9.26334 5.03047 3.38172
upperneck 10.6563 7.00831 -5.6825
head 5.04319 3.21228 -1.80401
rclavicle -3.97569e-015 -9.93923e-015
rhumerus -29.8735 -21.7989 -69.5258
rradius 32.6873
rwrist -2.21798
rhand -6.05364 -39.2341
rfingers 7.12502
rthumb 19.7808 -68.2476
lclavicle -3.97569e-015 -9.93923e-015
lhumerus -41.153 17.3305 80.8649
lradius 41.9799
lwrist -0.359808
lhand -3.39587 -11.0554
lfingers 7.12502
lthumb 22.334 17.6737
rfemur -5.20259 1.11162 16.9629
rtibia 22.7186
rfoot -18.4354 -6.18963
rtoes 10.0869
lfemur 0.301418 11.4743 -14.7915
ltibia 20.0215
lfoot -15.9239 12.2398
ltoes -26.5058
